<svg xmlns="http://www.w3.org/2000/svg" width="1800" height="1080" viewBox="0 0 1800 1080">
<defs><pattern id="hatch" width="12" height="12" patternUnits="userSpaceOnUse" patternTransform="rotate(28)"><line x1="0" y1="0" x2="0" y2="12" stroke="#9a9a9a" stroke-width="2"/></pattern></defs>
<rect width="100%" height="100%" fill="#ffffff"/>
<g font-family="Arial, Liberation Sans, DejaVu Sans, sans-serif" fill="#121212">
<text x="900" y="48" text-anchor="middle" font-size="34" font-weight="700">Same AR6 source data. Four fidelity claims.</text>
<text x="900" y="82" text-anchor="middle" font-size="16" fill="#555">Official AR6 WGI Chapter 6 Figure 6.18 CH₄ source CSV · pinned commit 09d9b43f…</text>
<text x="900" y="111" text-anchor="middle" font-size="15" fill="#555">Only the rendering contract changes — the source rows do not.</text>
<rect x="60" y="150" width="810" height="390" rx="12" fill="#fbfbfb" stroke="#d8d8d8" stroke-width="1.5"/>
<text x="84" y="186" font-size="23" font-weight="700">A  Raw plotting</text>
<text x="84" y="211" font-size="14" fill="#666">No semantic colour contract</text>
<line x1="138" y1="472.0" x2="840" y2="472.0" stroke="#e7e7e7" stroke-width="1"/>
<text x="128" y="477.0" text-anchor="end" font-size="12" fill="#666">0</text>
<line x1="138" y1="417.9" x2="840" y2="417.9" stroke="#e7e7e7" stroke-width="1"/>
<text x="128" y="422.9" text-anchor="end" font-size="12" fill="#666">200</text>
<line x1="138" y1="363.8" x2="840" y2="363.8" stroke="#e7e7e7" stroke-width="1"/>
<text x="128" y="368.8" text-anchor="end" font-size="12" fill="#666">400</text>
<line x1="138" y1="309.6" x2="840" y2="309.6" stroke="#e7e7e7" stroke-width="1"/>
<text x="128" y="314.6" text-anchor="end" font-size="12" fill="#666">600</text>
<line x1="138" y1="255.5" x2="840" y2="255.5" stroke="#e7e7e7" stroke-width="1"/>
<text x="128" y="260.5" text-anchor="end" font-size="12" fill="#666">800</text>
<line x1="138.0" y1="242" x2="138.0" y2="472" stroke="#eeeeee" stroke-width="1"/>
<text x="138.0" y="494" text-anchor="middle" font-size="12" fill="#666">1850</text>
<line x1="278.4" y1="242" x2="278.4" y2="472" stroke="#eeeeee" stroke-width="1"/>
<text x="278.4" y="494" text-anchor="middle" font-size="12" fill="#666">1900</text>
<line x1="418.8" y1="242" x2="418.8" y2="472" stroke="#eeeeee" stroke-width="1"/>
<text x="418.8" y="494" text-anchor="middle" font-size="12" fill="#666">1950</text>
<line x1="559.2" y1="242" x2="559.2" y2="472" stroke="#eeeeee" stroke-width="1"/>
<text x="559.2" y="494" text-anchor="middle" font-size="12" fill="#666">2000</text>
<line x1="699.6" y1="242" x2="699.6" y2="472" stroke="#eeeeee" stroke-width="1"/>
<text x="699.6" y="494" text-anchor="middle" font-size="12" fill="#666">2050</text>
<line x1="840.0" y1="242" x2="840.0" y2="472" stroke="#eeeeee" stroke-width="1"/>
<text x="840.0" y="494" text-anchor="middle" font-size="12" fill="#666">2100</text>
<line x1="138" y1="472" x2="840" y2="472" stroke="#222" stroke-width="1.2"/>
<line x1="138" y1="242" x2="138" y2="472" stroke="#222" stroke-width="1.2"/>
<text x="489" y="516" text-anchor="middle" font-size="13">Year</text>
<text x="84" y="357" text-anchor="middle" font-size="13" transform="rotate(-90 84 357)">CH₄ emissions (Tg CH₄ yr⁻¹)</text>
<path d="M 559.2 390.7 L 573.2 380.4 L 587.3 372.0 L 615.4 353.3 L 643.4 337.0 L 671.5 313.4 L 699.6 288.9 L 727.7 270.4 L 755.8 260.9 L 783.8 249.8 L 811.9 236.4 L 840.0 231.8 L 840.0 433.6 L 811.9 431.8 L 783.8 430.0 L 755.8 428.4 L 727.7 427.0 L 699.6 420.8 L 671.5 411.4 L 643.4 408.8 L 615.4 403.5 L 587.3 388.3 L 573.2 390.4 L 559.2 390.8 Z" fill="#777777" fill-opacity="0.10"/>
<path d="M 601.3 387.0 L 615.4 382.4 L 643.4 372.5 L 671.5 362.1 L 699.6 351.0 L 699.6 404.8 L 671.5 407.5 L 643.4 413.4 L 615.4 390.7 L 601.3 387.0 Z" fill="#8d6e8d" fill-opacity="0.07"/>
<path d="M 138.0 457.1 L 278.4 438.5 L 306.5 435.6 L 334.6 432.2 L 362.6 429.4 L 390.7 426.3 L 418.8 421.9 L 446.9 407.9 L 475.0 399.5 L 503.0 388.4 L 531.1 379.4 L 559.2 390.8" fill="none" stroke="#7f7f7f" stroke-width="1.35" stroke-opacity="0.78"/>
<path d="M 138.0 460.4 L 166.1 459.2 L 194.2 456.7 L 222.2 454.0 L 250.3 451.2 L 278.4 448.3 L 306.5 445.6 L 334.6 442.5 L 362.6 439.8 L 390.7 436.7 L 418.8 431.0 L 446.9 418.4 L 475.0 405.5 L 477.8 404.4 L 480.6 403.2 L 483.4 401.4 L 486.2 401.0 L 489.0 400.6 L 491.8 399.0 L 494.6 397.9 L 497.4 397.2 L 500.2 395.8 L 503.0 395.3 L 505.8 396.1 L 508.7 395.7 L 511.5 395.4 L 514.3 394.7 L 517.1 394.6 L 519.9 393.2 L 522.7 392.6 L 525.5 391.1 L 528.3 389.9 L 531.1 389.4 L 533.9 389.3 L 536.7 390.4 L 539.5 390.7 L 542.4 390.2 L 545.2 388.9 L 548.0 388.1 L 550.8 387.4 L 553.6 387.2 L 556.4 387.1 L 559.2 386.2 L 562.0 385.9 L 564.8 385.1 L 567.6 382.7 L 570.4 380.0 L 573.2 377.9 L 576.0 376.1 L 578.9 375.5 L 581.7 373.6 L 584.5 373.3 L 587.3 371.4 L 590.1 370.4 L 592.9 368.9 L 595.7 368.1 L 598.5 367.7" fill="none" stroke="#555555" stroke-width="1.35" stroke-opacity="0.78"/>
<path d="M 531.1 401.8 L 533.9 401.5 L 536.7 401.7 L 539.5 401.8 L 542.4 401.5 L 545.2 401.6 L 548.0 401.3 L 550.8 400.5 L 553.6 400.1 L 556.4 399.8 L 559.2 399.7 L 562.0 398.8 L 564.8 397.3 L 567.6 396.0 L 570.4 394.9 L 573.2 393.6 L 576.0 392.8 L 578.9 392.9 L 581.7 392.6 L 584.5 392.0 L 587.3 391.4 L 590.1 390.5 L 592.9 389.7 L 595.7 389.0 L 598.5 388.1 L 601.3 387.0" fill="none" stroke="#999999" stroke-width="1.35" stroke-opacity="0.78"/>
<path d="M 475.0 390.5 L 477.8 386.1 L 480.6 381.4 L 483.4 374.7 L 486.2 371.7 L 489.0 374.6 L 491.8 369.4 L 494.6 370.2 L 497.4 367.5 L 500.2 364.8 L 503.0 366.3 L 505.8 373.1 L 508.7 375.0 L 511.5 376.9 L 514.3 378.7 L 517.1 379.4 L 519.9 379.0 L 522.7 378.7 L 525.5 373.6 L 528.3 373.3 L 531.1 376.1 L 533.9 376.5 L 536.7 377.8 L 539.5 378.1 L 542.4 378.1 L 545.2 378.4 L 548.0 377.9 L 550.8 378.4 L 553.6 380.5 L 556.4 380.5 L 559.2 379.9 L 562.0 380.4 L 564.8 380.2 L 567.6 378.1 L 570.4 376.8 L 573.2 376.0 L 576.0 373.4 L 578.9 372.9 L 581.7 371.4 L 584.5 372.8 L 587.3 370.4 L 590.1 367.8 L 592.9 365.9 L 595.7 364.9 L 598.5 363.5 L 601.3 362.9" fill="none" stroke="#333333" stroke-width="1.35" stroke-opacity="0.78"/>
<path d="M 601.3 367.0 L 615.4 374.9 L 643.4 406.2 L 671.5 417.7 L 699.6 425.9 L 727.7 429.4 L 755.8 432.4 L 783.8 436.2 L 811.9 439.3 L 840.0 441.8" fill="none" stroke="#1f77b4" stroke-width="2.8" stroke-linecap="round" stroke-linejoin="round"/>
<path d="M 601.3 367.0 L 615.4 378.0 L 643.4 394.7 L 671.5 406.3 L 699.6 414.9 L 727.7 420.3 L 755.8 427.0 L 783.8 434.3 L 811.9 436.8 L 840.0 438.9" fill="none" stroke="#ff7f0e" stroke-width="2.8" stroke-linecap="round" stroke-linejoin="round"/>
<path d="M 601.3 367.0 L 615.4 367.0 L 643.4 363.9 L 671.5 368.4 L 699.6 375.4 L 727.7 382.9 L 755.8 386.3 L 783.8 390.0 L 811.9 391.1 L 840.0 392.1" fill="none" stroke="#2ca02c" stroke-width="2.8" stroke-linecap="round" stroke-linejoin="round"/>
<path d="M 601.3 367.0 L 615.4 358.8 L 643.4 344.5 L 671.5 332.5 L 699.6 320.7 L 727.7 309.0 L 755.8 296.9 L 783.8 284.4 L 811.9 273.0 L 840.0 261.6" fill="none" stroke="#d62728" stroke-width="2.8" stroke-linecap="round" stroke-linejoin="round"/>
<path d="M 601.3 367.0 L 615.4 364.5 L 643.4 349.0 L 671.5 325.3 L 699.6 312.3 L 727.7 310.2 L 755.8 310.4 L 783.8 318.0 L 811.9 333.1 L 840.0 341.5" fill="none" stroke="#9467bd" stroke-width="2.8" stroke-linecap="round" stroke-linejoin="round"/>
<line x1="144" y1="252" x2="168" y2="252" stroke="#1f77b4" stroke-width="4"/>
<text x="175" y="256" font-size="11.5">SSP1-1.9</text>
<line x1="294" y1="252" x2="318" y2="252" stroke="#ff7f0e" stroke-width="4"/>
<text x="325" y="256" font-size="11.5">SSP1-2.6</text>
<line x1="444" y1="252" x2="468" y2="252" stroke="#2ca02c" stroke-width="4"/>
<text x="475" y="256" font-size="11.5">SSP2-4.5</text>
<line x1="144" y1="274" x2="168" y2="274" stroke="#d62728" stroke-width="4"/>
<text x="175" y="278" font-size="11.5">SSP3-7.0</text>
<line x1="294" y1="274" x2="318" y2="274" stroke="#9467bd" stroke-width="4"/>
<text x="325" y="278" font-size="11.5">SSP5-8.5</text>
<rect x="84" y="502" width="160" height="24" rx="12" fill="#efefef"/>
<text x="94" y="519" font-size="11.5" font-weight="700" fill="#333333">NO FIDELITY CLAIM</text>
<text x="846" y="519" text-anchor="end" font-size="11.5" fill="#666">default colour cycle + generic styling</text>
<rect x="930" y="150" width="810" height="390" rx="12" fill="#fbfbfb" stroke="#d8d8d8" stroke-width="1.5"/>
<text x="954" y="186" font-size="23" font-weight="700">B  “IPCC-ish”</text>
<text x="954" y="211" font-size="14" fill="#666">Appearance first; evidence absent</text>
<line x1="1008" y1="472.0" x2="1710" y2="472.0" stroke="#e7e7e7" stroke-width="1"/>
<text x="998" y="477.0" text-anchor="end" font-size="12" fill="#666">0</text>
<line x1="1008" y1="417.9" x2="1710" y2="417.9" stroke="#e7e7e7" stroke-width="1"/>
<text x="998" y="422.9" text-anchor="end" font-size="12" fill="#666">200</text>
<line x1="1008" y1="363.8" x2="1710" y2="363.8" stroke="#e7e7e7" stroke-width="1"/>
<text x="998" y="368.8" text-anchor="end" font-size="12" fill="#666">400</text>
<line x1="1008" y1="309.6" x2="1710" y2="309.6" stroke="#e7e7e7" stroke-width="1"/>
<text x="998" y="314.6" text-anchor="end" font-size="12" fill="#666">600</text>
<line x1="1008" y1="255.5" x2="1710" y2="255.5" stroke="#e7e7e7" stroke-width="1"/>
<text x="998" y="260.5" text-anchor="end" font-size="12" fill="#666">800</text>
<line x1="1008.0" y1="242" x2="1008.0" y2="472" stroke="#eeeeee" stroke-width="1"/>
<text x="1008.0" y="494" text-anchor="middle" font-size="12" fill="#666">1850</text>
<line x1="1148.4" y1="242" x2="1148.4" y2="472" stroke="#eeeeee" stroke-width="1"/>
<text x="1148.4" y="494" text-anchor="middle" font-size="12" fill="#666">1900</text>
<line x1="1288.8" y1="242" x2="1288.8" y2="472" stroke="#eeeeee" stroke-width="1"/>
<text x="1288.8" y="494" text-anchor="middle" font-size="12" fill="#666">1950</text>
<line x1="1429.2" y1="242" x2="1429.2" y2="472" stroke="#eeeeee" stroke-width="1"/>
<text x="1429.2" y="494" text-anchor="middle" font-size="12" fill="#666">2000</text>
<line x1="1569.6" y1="242" x2="1569.6" y2="472" stroke="#eeeeee" stroke-width="1"/>
<text x="1569.6" y="494" text-anchor="middle" font-size="12" fill="#666">2050</text>
<line x1="1710.0" y1="242" x2="1710.0" y2="472" stroke="#eeeeee" stroke-width="1"/>
<text x="1710.0" y="494" text-anchor="middle" font-size="12" fill="#666">2100</text>
<line x1="1008" y1="472" x2="1710" y2="472" stroke="#222" stroke-width="1.2"/>
<line x1="1008" y1="242" x2="1008" y2="472" stroke="#222" stroke-width="1.2"/>
<text x="1359" y="516" text-anchor="middle" font-size="13">Year</text>
<text x="954" y="357" text-anchor="middle" font-size="13" transform="rotate(-90 954 357)">CH₄ emissions (Tg CH₄ yr⁻¹)</text>
<path d="M 1429.2 390.7 L 1443.2 380.4 L 1457.3 372.0 L 1485.4 353.3 L 1513.4 337.0 L 1541.5 313.4 L 1569.6 288.9 L 1597.7 270.4 L 1625.8 260.9 L 1653.8 249.8 L 1681.9 236.4 L 1710.0 231.8 L 1710.0 433.6 L 1681.9 431.8 L 1653.8 430.0 L 1625.8 428.4 L 1597.7 427.0 L 1569.6 420.8 L 1541.5 411.4 L 1513.4 408.8 L 1485.4 403.5 L 1457.3 388.3 L 1443.2 390.4 L 1429.2 390.8 Z" fill="#d0d0d0" fill-opacity="0.22"/>
<path d="M 1429.2 390.7 L 1443.2 380.4 L 1457.3 372.0 L 1485.4 353.3 L 1513.4 337.0 L 1541.5 313.4 L 1569.6 288.9 L 1597.7 270.4 L 1625.8 260.9 L 1653.8 249.8 L 1681.9 236.4 L 1710.0 231.8 L 1710.0 433.6 L 1681.9 431.8 L 1653.8 430.0 L 1625.8 428.4 L 1597.7 427.0 L 1569.6 420.8 L 1541.5 411.4 L 1513.4 408.8 L 1485.4 403.5 L 1457.3 388.3 L 1443.2 390.4 L 1429.2 390.8 Z" fill="url(#hatch)" fill-opacity="0.55"/>
<path d="M 1471.3 387.0 L 1485.4 382.4 L 1513.4 372.5 L 1541.5 362.1 L 1569.6 351.0 L 1569.6 404.8 L 1541.5 407.5 L 1513.4 413.4 L 1485.4 390.7 L 1471.3 387.0 Z" fill="#bdbdbd" fill-opacity="0.12"/>
<path d="M 1008.0 457.1 L 1148.4 438.5 L 1176.5 435.6 L 1204.6 432.2 L 1232.6 429.4 L 1260.7 426.3 L 1288.8 421.9 L 1316.9 407.9 L 1345.0 399.5 L 1373.0 388.4 L 1401.1 379.4 L 1429.2 390.8" fill="none" stroke="#222222" stroke-width="1.35" stroke-opacity="0.62"/>
<path d="M 1008.0 460.4 L 1036.1 459.2 L 1064.2 456.7 L 1092.2 454.0 L 1120.3 451.2 L 1148.4 448.3 L 1176.5 445.6 L 1204.6 442.5 L 1232.6 439.8 L 1260.7 436.7 L 1288.8 431.0 L 1316.9 418.4 L 1345.0 405.5 L 1347.8 404.4 L 1350.6 403.2 L 1353.4 401.4 L 1356.2 401.0 L 1359.0 400.6 L 1361.8 399.0 L 1364.6 397.9 L 1367.4 397.2 L 1370.2 395.8 L 1373.0 395.3 L 1375.8 396.1 L 1378.7 395.7 L 1381.5 395.4 L 1384.3 394.7 L 1387.1 394.6 L 1389.9 393.2 L 1392.7 392.6 L 1395.5 391.1 L 1398.3 389.9 L 1401.1 389.4 L 1403.9 389.3 L 1406.7 390.4 L 1409.5 390.7 L 1412.4 390.2 L 1415.2 388.9 L 1418.0 388.1 L 1420.8 387.4 L 1423.6 387.2 L 1426.4 387.1 L 1429.2 386.2 L 1432.0 385.9 L 1434.8 385.1 L 1437.6 382.7 L 1440.4 380.0 L 1443.2 377.9 L 1446.0 376.1 L 1448.9 375.5 L 1451.7 373.6 L 1454.5 373.3 L 1457.3 371.4 L 1460.1 370.4 L 1462.9 368.9 L 1465.7 368.1 L 1468.5 367.7" fill="none" stroke="#222222" stroke-width="1.35" stroke-opacity="0.62"/>
<path d="M 1401.1 401.8 L 1403.9 401.5 L 1406.7 401.7 L 1409.5 401.8 L 1412.4 401.5 L 1415.2 401.6 L 1418.0 401.3 L 1420.8 400.5 L 1423.6 400.1 L 1426.4 399.8 L 1429.2 399.7 L 1432.0 398.8 L 1434.8 397.3 L 1437.6 396.0 L 1440.4 394.9 L 1443.2 393.6 L 1446.0 392.8 L 1448.9 392.9 L 1451.7 392.6 L 1454.5 392.0 L 1457.3 391.4 L 1460.1 390.5 L 1462.9 389.7 L 1465.7 389.0 L 1468.5 388.1 L 1471.3 387.0" fill="none" stroke="#222222" stroke-width="1.35" stroke-opacity="0.62"/>
<path d="M 1345.0 390.5 L 1347.8 386.1 L 1350.6 381.4 L 1353.4 374.7 L 1356.2 371.7 L 1359.0 374.6 L 1361.8 369.4 L 1364.6 370.2 L 1367.4 367.5 L 1370.2 364.8 L 1373.0 366.3 L 1375.8 373.1 L 1378.7 375.0 L 1381.5 376.9 L 1384.3 378.7 L 1387.1 379.4 L 1389.9 379.0 L 1392.7 378.7 L 1395.5 373.6 L 1398.3 373.3 L 1401.1 376.1 L 1403.9 376.5 L 1406.7 377.8 L 1409.5 378.1 L 1412.4 378.1 L 1415.2 378.4 L 1418.0 377.9 L 1420.8 378.4 L 1423.6 380.5 L 1426.4 380.5 L 1429.2 379.9 L 1432.0 380.4 L 1434.8 380.2 L 1437.6 378.1 L 1440.4 376.8 L 1443.2 376.0 L 1446.0 373.4 L 1448.9 372.9 L 1451.7 371.4 L 1454.5 372.8 L 1457.3 370.4 L 1460.1 367.8 L 1462.9 365.9 L 1465.7 364.9 L 1468.5 363.5 L 1471.3 362.9" fill="none" stroke="#222222" stroke-width="1.35" stroke-opacity="0.62"/>
<path d="M 1471.3 367.0 L 1485.4 374.9 L 1513.4 406.2 L 1541.5 417.7 L 1569.6 425.9 L 1597.7 429.4 L 1625.8 432.4 L 1653.8 436.2 L 1681.9 439.3 L 1710.0 441.8" fill="none" stroke="#24B9C7" stroke-width="2.8" stroke-linecap="round" stroke-linejoin="round"/>
<path d="M 1471.3 367.0 L 1485.4 378.0 L 1513.4 394.7 L 1541.5 406.3 L 1569.6 414.9 L 1597.7 420.3 L 1625.8 427.0 L 1653.8 434.3 L 1681.9 436.8 L 1710.0 438.9" fill="none" stroke="#2D66B3" stroke-width="2.8" stroke-linecap="round" stroke-linejoin="round"/>
<path d="M 1471.3 367.0 L 1485.4 367.0 L 1513.4 363.9 L 1541.5 368.4 L 1569.6 375.4 L 1597.7 382.9 L 1625.8 386.3 L 1653.8 390.0 L 1681.9 391.1 L 1710.0 392.1" fill="none" stroke="#F0B429" stroke-width="2.8" stroke-linecap="round" stroke-linejoin="round"/>
<path d="M 1471.3 367.0 L 1485.4 358.8 L 1513.4 344.5 L 1541.5 332.5 L 1569.6 320.7 L 1597.7 309.0 L 1625.8 296.9 L 1653.8 284.4 L 1681.9 273.0 L 1710.0 261.6" fill="none" stroke="#E45538" stroke-width="2.8" stroke-linecap="round" stroke-linejoin="round"/>
<path d="M 1471.3 367.0 L 1485.4 364.5 L 1513.4 349.0 L 1541.5 325.3 L 1569.6 312.3 L 1597.7 310.2 L 1625.8 310.4 L 1653.8 318.0 L 1681.9 333.1 L 1710.0 341.5" fill="none" stroke="#A52A2A" stroke-width="2.8" stroke-linecap="round" stroke-linejoin="round"/>
<line x1="1014" y1="252" x2="1038" y2="252" stroke="#24B9C7" stroke-width="4"/>
<text x="1045" y="256" font-size="11.5">SSP1-1.9</text>
<line x1="1164" y1="252" x2="1188" y2="252" stroke="#2D66B3" stroke-width="4"/>
<text x="1195" y="256" font-size="11.5">SSP1-2.6</text>
<line x1="1314" y1="252" x2="1338" y2="252" stroke="#F0B429" stroke-width="4"/>
<text x="1345" y="256" font-size="11.5">SSP2-4.5</text>
<line x1="1014" y1="274" x2="1038" y2="274" stroke="#E45538" stroke-width="4"/>
<text x="1045" y="278" font-size="11.5">SSP3-7.0</text>
<line x1="1164" y1="274" x2="1188" y2="274" stroke="#A52A2A" stroke-width="4"/>
<text x="1195" y="278" font-size="11.5">SSP5-8.5</text>
<rect x="954" y="502" width="190" height="24" rx="12" fill="#efefef"/>
<text x="964" y="519" font-size="11.5" font-weight="700" fill="#333333">VISUAL RESEMBLANCE ONLY</text>
<text x="1716" y="519" text-anchor="end" font-size="11.5" fill="#666">guessed palette + decorative hatch</text>
<rect x="60" y="590" width="810" height="390" rx="12" fill="#fbfbfb" stroke="#d8d8d8" stroke-width="1.5"/>
<text x="84" y="626" font-size="23" font-weight="700">C  Adapted / IPCC-inspired</text>
<text x="84" y="651" font-size="14" fill="#666">Explicit WGI 2022 profile</text>
<line x1="138" y1="912.0" x2="840" y2="912.0" stroke="#e7e7e7" stroke-width="1"/>
<text x="128" y="917.0" text-anchor="end" font-size="12" fill="#666">0</text>
<line x1="138" y1="857.9" x2="840" y2="857.9" stroke="#e7e7e7" stroke-width="1"/>
<text x="128" y="862.9" text-anchor="end" font-size="12" fill="#666">200</text>
<line x1="138" y1="803.8" x2="840" y2="803.8" stroke="#e7e7e7" stroke-width="1"/>
<text x="128" y="808.8" text-anchor="end" font-size="12" fill="#666">400</text>
<line x1="138" y1="749.6" x2="840" y2="749.6" stroke="#e7e7e7" stroke-width="1"/>
<text x="128" y="754.6" text-anchor="end" font-size="12" fill="#666">600</text>
<line x1="138" y1="695.5" x2="840" y2="695.5" stroke="#e7e7e7" stroke-width="1"/>
<text x="128" y="700.5" text-anchor="end" font-size="12" fill="#666">800</text>
<line x1="138.0" y1="682" x2="138.0" y2="912" stroke="#eeeeee" stroke-width="1"/>
<text x="138.0" y="934" text-anchor="middle" font-size="12" fill="#666">1850</text>
<line x1="278.4" y1="682" x2="278.4" y2="912" stroke="#eeeeee" stroke-width="1"/>
<text x="278.4" y="934" text-anchor="middle" font-size="12" fill="#666">1900</text>
<line x1="418.8" y1="682" x2="418.8" y2="912" stroke="#eeeeee" stroke-width="1"/>
<text x="418.8" y="934" text-anchor="middle" font-size="12" fill="#666">1950</text>
<line x1="559.2" y1="682" x2="559.2" y2="912" stroke="#eeeeee" stroke-width="1"/>
<text x="559.2" y="934" text-anchor="middle" font-size="12" fill="#666">2000</text>
<line x1="699.6" y1="682" x2="699.6" y2="912" stroke="#eeeeee" stroke-width="1"/>
<text x="699.6" y="934" text-anchor="middle" font-size="12" fill="#666">2050</text>
<line x1="840.0" y1="682" x2="840.0" y2="912" stroke="#eeeeee" stroke-width="1"/>
<text x="840.0" y="934" text-anchor="middle" font-size="12" fill="#666">2100</text>
<line x1="138" y1="912" x2="840" y2="912" stroke="#222" stroke-width="1.2"/>
<line x1="138" y1="682" x2="138" y2="912" stroke="#222" stroke-width="1.2"/>
<text x="489" y="956" text-anchor="middle" font-size="13">Year</text>
<text x="84" y="797" text-anchor="middle" font-size="13" transform="rotate(-90 84 797)">CH₄ emissions (Tg CH₄ yr⁻¹)</text>
<path d="M 559.2 830.7 L 573.2 820.4 L 587.3 812.0 L 615.4 793.3 L 643.4 777.0 L 671.5 753.4 L 699.6 728.9 L 727.7 710.4 L 755.8 700.9 L 783.8 689.8 L 811.9 676.4 L 840.0 671.8 L 840.0 873.6 L 811.9 871.8 L 783.8 870.0 L 755.8 868.4 L 727.7 867.0 L 699.6 860.8 L 671.5 851.4 L 643.4 848.8 L 615.4 843.5 L 587.3 828.3 L 573.2 830.4 L 559.2 830.8 Z" fill="#777777" fill-opacity="0.12"/>
<path d="M 601.3 827.0 L 615.4 822.4 L 643.4 812.5 L 671.5 802.1 L 699.6 791.0 L 699.6 844.8 L 671.5 847.5 L 643.4 853.4 L 615.4 830.7 L 601.3 827.0 Z" fill="#8d6e8d" fill-opacity="0.10"/>
<path d="M 138.0 897.1 L 278.4 878.5 L 306.5 875.6 L 334.6 872.2 L 362.6 869.4 L 390.7 866.3 L 418.8 861.9 L 446.9 847.9 L 475.0 839.5 L 503.0 828.4 L 531.1 819.4 L 559.2 830.8" fill="none" stroke="#222222" stroke-width="1.35" stroke-opacity="0.78"/>
<path d="M 138.0 900.4 L 166.1 899.2 L 194.2 896.7 L 222.2 894.0 L 250.3 891.2 L 278.4 888.3 L 306.5 885.6 L 334.6 882.5 L 362.6 879.8 L 390.7 876.7 L 418.8 871.0 L 446.9 858.4 L 475.0 845.5 L 477.8 844.4 L 480.6 843.2 L 483.4 841.4 L 486.2 841.0 L 489.0 840.6 L 491.8 839.0 L 494.6 837.9 L 497.4 837.2 L 500.2 835.8 L 503.0 835.3 L 505.8 836.1 L 508.7 835.7 L 511.5 835.4 L 514.3 834.7 L 517.1 834.6 L 519.9 833.2 L 522.7 832.6 L 525.5 831.1 L 528.3 829.9 L 531.1 829.4 L 533.9 829.3 L 536.7 830.4 L 539.5 830.7 L 542.4 830.2 L 545.2 828.9 L 548.0 828.1 L 550.8 827.4 L 553.6 827.2 L 556.4 827.1 L 559.2 826.2 L 562.0 825.9 L 564.8 825.1 L 567.6 822.7 L 570.4 820.0 L 573.2 817.9 L 576.0 816.1 L 578.9 815.5 L 581.7 813.6 L 584.5 813.3 L 587.3 811.4 L 590.1 810.4 L 592.9 808.9 L 595.7 808.1 L 598.5 807.7" fill="none" stroke="#222222" stroke-width="1.35" stroke-opacity="0.78"/>
<path d="M 531.1 841.8 L 533.9 841.5 L 536.7 841.7 L 539.5 841.8 L 542.4 841.5 L 545.2 841.6 L 548.0 841.3 L 550.8 840.5 L 553.6 840.1 L 556.4 839.8 L 559.2 839.7 L 562.0 838.8 L 564.8 837.3 L 567.6 836.0 L 570.4 834.9 L 573.2 833.6 L 576.0 832.8 L 578.9 832.9 L 581.7 832.6 L 584.5 832.0 L 587.3 831.4 L 590.1 830.5 L 592.9 829.7 L 595.7 829.0 L 598.5 828.1 L 601.3 827.0" fill="none" stroke="#222222" stroke-width="1.35" stroke-opacity="0.78"/>
<path d="M 475.0 830.5 L 477.8 826.1 L 480.6 821.4 L 483.4 814.7 L 486.2 811.7 L 489.0 814.6 L 491.8 809.4 L 494.6 810.2 L 497.4 807.5 L 500.2 804.8 L 503.0 806.3 L 505.8 813.1 L 508.7 815.0 L 511.5 816.9 L 514.3 818.7 L 517.1 819.4 L 519.9 819.0 L 522.7 818.7 L 525.5 813.6 L 528.3 813.3 L 531.1 816.1 L 533.9 816.5 L 536.7 817.8 L 539.5 818.1 L 542.4 818.1 L 545.2 818.4 L 548.0 817.9 L 550.8 818.4 L 553.6 820.5 L 556.4 820.5 L 559.2 819.9 L 562.0 820.4 L 564.8 820.2 L 567.6 818.1 L 570.4 816.8 L 573.2 816.0 L 576.0 813.4 L 578.9 812.9 L 581.7 811.4 L 584.5 812.8 L 587.3 810.4 L 590.1 807.8 L 592.9 805.9 L 595.7 804.9 L 598.5 803.5 L 601.3 802.9" fill="none" stroke="#222222" stroke-width="1.35" stroke-opacity="0.78"/>
<path d="M 601.3 807.0 L 615.4 814.9 L 643.4 846.2 L 671.5 857.7 L 699.6 865.9 L 727.7 869.4 L 755.8 872.4 L 783.8 876.2 L 811.9 879.3 L 840.0 881.8" fill="none" stroke="#00ADCF" stroke-width="2.8" stroke-linecap="round" stroke-linejoin="round"/>
<path d="M 601.3 807.0 L 615.4 818.0 L 643.4 834.7 L 671.5 846.3 L 699.6 854.9 L 727.7 860.3 L 755.8 867.0 L 783.8 874.3 L 811.9 876.8 L 840.0 878.9" fill="none" stroke="#173C66" stroke-width="2.8" stroke-linecap="round" stroke-linejoin="round"/>
<path d="M 601.3 807.0 L 615.4 807.0 L 643.4 803.9 L 671.5 808.4 L 699.6 815.4 L 727.7 822.9 L 755.8 826.3 L 783.8 830.0 L 811.9 831.1 L 840.0 832.1" fill="none" stroke="#F79420" stroke-width="2.8" stroke-linecap="round" stroke-linejoin="round"/>
<path d="M 601.3 807.0 L 615.4 798.8 L 643.4 784.5 L 671.5 772.5 L 699.6 760.7 L 727.7 749.0 L 755.8 736.9 L 783.8 724.4 L 811.9 713.0 L 840.0 701.6" fill="none" stroke="#E71D25" stroke-width="2.8" stroke-linecap="round" stroke-linejoin="round"/>
<path d="M 601.3 807.0 L 615.4 804.5 L 643.4 789.0 L 671.5 765.3 L 699.6 752.3 L 727.7 750.2 L 755.8 750.4 L 783.8 758.0 L 811.9 773.1 L 840.0 781.5" fill="none" stroke="#951B1E" stroke-width="2.8" stroke-linecap="round" stroke-linejoin="round"/>
<line x1="144" y1="692" x2="168" y2="692" stroke="#00ADCF" stroke-width="4"/>
<text x="175" y="696" font-size="11.5">SSP1-1.9</text>
<line x1="294" y1="692" x2="318" y2="692" stroke="#173C66" stroke-width="4"/>
<text x="325" y="696" font-size="11.5">SSP1-2.6</text>
<line x1="444" y1="692" x2="468" y2="692" stroke="#F79420" stroke-width="4"/>
<text x="475" y="696" font-size="11.5">SSP2-4.5</text>
<line x1="144" y1="714" x2="168" y2="714" stroke="#E71D25" stroke-width="4"/>
<text x="175" y="718" font-size="11.5">SSP3-7.0</text>
<line x1="294" y1="714" x2="318" y2="714" stroke="#951B1E" stroke-width="4"/>
<text x="325" y="718" font-size="11.5">SSP5-8.5</text>
<rect x="84" y="942" width="160" height="24" rx="12" fill="#e8eef4"/>
<text x="94" y="959" font-size="11.5" font-weight="700" fill="#333333">ADAPTED PROFILE</text>
<text x="846" y="959" text-anchor="end" font-size="11.5" fill="#666">WGI 2022 semantic SSP colours · substitutions disclosed</text>
<rect x="930" y="590" width="810" height="390" rx="12" fill="#fbfbfb" stroke="#d8d8d8" stroke-width="1.5"/>
<text x="954" y="626" font-size="23" font-weight="700">D  Reference-grounded AR6</text>
<text x="954" y="651" font-size="14" fill="#666">Report-era semantics + audit gate</text>
<line x1="1008" y1="912.0" x2="1710" y2="912.0" stroke="#e7e7e7" stroke-width="1"/>
<text x="998" y="917.0" text-anchor="end" font-size="12" fill="#666">0</text>
<line x1="1008" y1="857.9" x2="1710" y2="857.9" stroke="#e7e7e7" stroke-width="1"/>
<text x="998" y="862.9" text-anchor="end" font-size="12" fill="#666">200</text>
<line x1="1008" y1="803.8" x2="1710" y2="803.8" stroke="#e7e7e7" stroke-width="1"/>
<text x="998" y="808.8" text-anchor="end" font-size="12" fill="#666">400</text>
<line x1="1008" y1="749.6" x2="1710" y2="749.6" stroke="#e7e7e7" stroke-width="1"/>
<text x="998" y="754.6" text-anchor="end" font-size="12" fill="#666">600</text>
<line x1="1008" y1="695.5" x2="1710" y2="695.5" stroke="#e7e7e7" stroke-width="1"/>
<text x="998" y="700.5" text-anchor="end" font-size="12" fill="#666">800</text>
<line x1="1008.0" y1="682" x2="1008.0" y2="912" stroke="#eeeeee" stroke-width="1"/>
<text x="1008.0" y="934" text-anchor="middle" font-size="12" fill="#666">1850</text>
<line x1="1148.4" y1="682" x2="1148.4" y2="912" stroke="#eeeeee" stroke-width="1"/>
<text x="1148.4" y="934" text-anchor="middle" font-size="12" fill="#666">1900</text>
<line x1="1288.8" y1="682" x2="1288.8" y2="912" stroke="#eeeeee" stroke-width="1"/>
<text x="1288.8" y="934" text-anchor="middle" font-size="12" fill="#666">1950</text>
<line x1="1429.2" y1="682" x2="1429.2" y2="912" stroke="#eeeeee" stroke-width="1"/>
<text x="1429.2" y="934" text-anchor="middle" font-size="12" fill="#666">2000</text>
<line x1="1569.6" y1="682" x2="1569.6" y2="912" stroke="#eeeeee" stroke-width="1"/>
<text x="1569.6" y="934" text-anchor="middle" font-size="12" fill="#666">2050</text>
<line x1="1710.0" y1="682" x2="1710.0" y2="912" stroke="#eeeeee" stroke-width="1"/>
<text x="1710.0" y="934" text-anchor="middle" font-size="12" fill="#666">2100</text>
<line x1="1008" y1="912" x2="1710" y2="912" stroke="#222" stroke-width="1"/>
<line x1="1008" y1="682" x2="1008" y2="912" stroke="#222" stroke-width="1"/>
<text x="1359" y="956" text-anchor="middle" font-size="13">Year</text>
<text x="954" y="797" text-anchor="middle" font-size="13" transform="rotate(-90 954 797)">CH₄ emissions (Tg CH₄ yr⁻¹)</text>
<path d="M 1429.2 830.7 L 1443.2 820.4 L 1457.3 812.0 L 1485.4 793.3 L 1513.4 777.0 L 1541.5 753.4 L 1569.6 728.9 L 1597.7 710.4 L 1625.8 700.9 L 1653.8 689.8 L 1681.9 676.4 L 1710.0 671.8 L 1710.0 873.6 L 1681.9 871.8 L 1653.8 870.0 L 1625.8 868.4 L 1597.7 867.0 L 1569.6 860.8 L 1541.5 851.4 L 1513.4 848.8 L 1485.4 843.5 L 1457.3 828.3 L 1443.2 830.4 L 1429.2 830.8 Z" fill="#111111" fill-opacity="0.10"/>
<path d="M 1471.3 827.0 L 1485.4 822.4 L 1513.4 812.5 L 1541.5 802.1 L 1569.6 791.0 L 1569.6 844.8 L 1541.5 847.5 L 1513.4 853.4 L 1485.4 830.7 L 1471.3 827.0 Z" fill="#7A1E7A" fill-opacity="0.12"/>
<path d="M 1008.0 897.1 L 1148.4 878.5 L 1176.5 875.6 L 1204.6 872.2 L 1232.6 869.4 L 1260.7 866.3 L 1288.8 861.9 L 1316.9 847.9 L 1345.0 839.5 L 1373.0 828.4 L 1401.1 819.4 L 1429.2 830.8" fill="none" stroke="#222222" stroke-width="1.5" stroke-opacity="0.78"/>
<path d="M 1008.0 900.4 L 1036.1 899.2 L 1064.2 896.7 L 1092.2 894.0 L 1120.3 891.2 L 1148.4 888.3 L 1176.5 885.6 L 1204.6 882.5 L 1232.6 879.8 L 1260.7 876.7 L 1288.8 871.0 L 1316.9 858.4 L 1345.0 845.5 L 1347.8 844.4 L 1350.6 843.2 L 1353.4 841.4 L 1356.2 841.0 L 1359.0 840.6 L 1361.8 839.0 L 1364.6 837.9 L 1367.4 837.2 L 1370.2 835.8 L 1373.0 835.3 L 1375.8 836.1 L 1378.7 835.7 L 1381.5 835.4 L 1384.3 834.7 L 1387.1 834.6 L 1389.9 833.2 L 1392.7 832.6 L 1395.5 831.1 L 1398.3 829.9 L 1401.1 829.4 L 1403.9 829.3 L 1406.7 830.4 L 1409.5 830.7 L 1412.4 830.2 L 1415.2 828.9 L 1418.0 828.1 L 1420.8 827.4 L 1423.6 827.2 L 1426.4 827.1 L 1429.2 826.2 L 1432.0 825.9 L 1434.8 825.1 L 1437.6 822.7 L 1440.4 820.0 L 1443.2 817.9 L 1446.0 816.1 L 1448.9 815.5 L 1451.7 813.6 L 1454.5 813.3 L 1457.3 811.4 L 1460.1 810.4 L 1462.9 808.9 L 1465.7 808.1 L 1468.5 807.7" fill="none" stroke="#222222" stroke-width="1.5" stroke-opacity="0.78" stroke-dasharray="8 4"/>
<path d="M 1401.1 841.8 L 1403.9 841.5 L 1406.7 841.7 L 1409.5 841.8 L 1412.4 841.5 L 1415.2 841.6 L 1418.0 841.3 L 1420.8 840.5 L 1423.6 840.1 L 1426.4 839.8 L 1429.2 839.7 L 1432.0 838.8 L 1434.8 837.3 L 1437.6 836.0 L 1440.4 834.9 L 1443.2 833.6 L 1446.0 832.8 L 1448.9 832.9 L 1451.7 832.6 L 1454.5 832.0 L 1457.3 831.4 L 1460.1 830.5 L 1462.9 829.7 L 1465.7 829.0 L 1468.5 828.1 L 1471.3 827.0" fill="none" stroke="#222222" stroke-width="1.5" stroke-opacity="0.78" stroke-dasharray="2 3"/>
<path d="M 1345.0 830.5 L 1347.8 826.1 L 1350.6 821.4 L 1353.4 814.7 L 1356.2 811.7 L 1359.0 814.6 L 1361.8 809.4 L 1364.6 810.2 L 1367.4 807.5 L 1370.2 804.8 L 1373.0 806.3 L 1375.8 813.1 L 1378.7 815.0 L 1381.5 816.9 L 1384.3 818.7 L 1387.1 819.4 L 1389.9 819.0 L 1392.7 818.7 L 1395.5 813.6 L 1398.3 813.3 L 1401.1 816.1 L 1403.9 816.5 L 1406.7 817.8 L 1409.5 818.1 L 1412.4 818.1 L 1415.2 818.4 L 1418.0 817.9 L 1420.8 818.4 L 1423.6 820.5 L 1426.4 820.5 L 1429.2 819.9 L 1432.0 820.4 L 1434.8 820.2 L 1437.6 818.1 L 1440.4 816.8 L 1443.2 816.0 L 1446.0 813.4 L 1448.9 812.9 L 1451.7 811.4 L 1454.5 812.8 L 1457.3 810.4 L 1460.1 807.8 L 1462.9 805.9 L 1465.7 804.9 L 1468.5 803.5 L 1471.3 802.9" fill="none" stroke="#222222" stroke-width="1.5" stroke-opacity="0.78" stroke-dasharray="10 3 2 3"/>
<path d="M 1471.3 807.0 L 1485.4 814.9 L 1513.4 846.2 L 1541.5 857.7 L 1569.6 865.9 L 1597.7 869.4 L 1625.8 872.4 L 1653.8 876.2 L 1681.9 879.3 L 1710.0 881.8" fill="none" stroke="#1E9684" stroke-width="2.5" stroke-linecap="round" stroke-linejoin="round"/>
<path d="M 1471.3 807.0 L 1485.4 818.0 L 1513.4 834.7 L 1541.5 846.3 L 1569.6 854.9 L 1597.7 860.3 L 1625.8 867.0 L 1653.8 874.3 L 1681.9 876.8 L 1710.0 878.9" fill="none" stroke="#1D3354" stroke-width="2.5" stroke-linecap="round" stroke-linejoin="round"/>
<path d="M 1471.3 807.0 L 1485.4 807.0 L 1513.4 803.9 L 1541.5 808.4 L 1569.6 815.4 L 1597.7 822.9 L 1625.8 826.3 L 1653.8 830.0 L 1681.9 831.1 L 1710.0 832.1" fill="none" stroke="#EADD3D" stroke-width="2.5" stroke-linecap="round" stroke-linejoin="round"/>
<path d="M 1471.3 807.0 L 1485.4 798.8 L 1513.4 784.5 L 1541.5 772.5 L 1569.6 760.7 L 1597.7 749.0 L 1625.8 736.9 L 1653.8 724.4 L 1681.9 713.0 L 1710.0 701.6" fill="none" stroke="#F21111" stroke-width="2.5" stroke-linecap="round" stroke-linejoin="round"/>
<path d="M 1471.3 807.0 L 1485.4 804.5 L 1513.4 789.0 L 1541.5 765.3 L 1569.6 752.3 L 1597.7 750.2 L 1625.8 750.4 L 1653.8 758.0 L 1681.9 773.1 L 1710.0 781.5" fill="none" stroke="#840B22" stroke-width="2.5" stroke-linecap="round" stroke-linejoin="round"/>
<line x1="1014" y1="692" x2="1038" y2="692" stroke="#1E9684" stroke-width="4"/>
<text x="1045" y="696" font-size="11.5">SSP1-1.9</text>
<line x1="1164" y1="692" x2="1188" y2="692" stroke="#1D3354" stroke-width="4"/>
<text x="1195" y="696" font-size="11.5">SSP1-2.6</text>
<line x1="1314" y1="692" x2="1338" y2="692" stroke="#EADD3D" stroke-width="4"/>
<text x="1345" y="696" font-size="11.5">SSP2-4.5</text>
<line x1="1014" y1="714" x2="1038" y2="714" stroke="#F21111" stroke-width="4"/>
<text x="1045" y="718" font-size="11.5">SSP3-7.0</text>
<line x1="1164" y1="714" x2="1188" y2="714" stroke="#840B22" stroke-width="4"/>
<text x="1195" y="718" font-size="11.5">SSP5-8.5</text>
<rect x="954" y="942" width="178" height="24" rx="12" fill="#111111"/>
<text x="964" y="959" font-size="11.5" font-weight="700" fill="#ffffff">REFERENCE-GROUNDED</text>
<text x="1716" y="959" text-anchor="end" font-size="11.5" fill="#666">AR6 report SSP colours · history styles · RCP + ECLIPSE ranges</text>
<text x="900" y="1030" text-anchor="middle" font-size="14" fill="#444">Source: IPCC-WG1/Chapter-6_Fig18 · ar6-wg1-ch6-emissions-global-data.csv · commit 09d9b43fe935fc81d828147f91b717396a84fca3</text>
<text x="900" y="1055" text-anchor="middle" font-size="13" fill="#666">World · Emissions|CH4 · official AR6 source data; no synthetic trajectories.</text>
</g></svg>
